<svg width="25" height="28" viewBox="0 0 25 28" fill="none" xmlns="http://www.w3.org/2000/svg">
<path d="M2.50699 27.8792C1.8381 27.8792 1.27726 27.6374 0.824471 27.1537C0.381973 26.6804 0.160723 26.0269 0.160723 25.1934V2.93466C0.160723 2.11141 0.381973 1.4631 0.824471 0.98973C1.27726 0.506069 1.8381 0.264239 2.50699 0.264239C2.84659 0.264239 3.17589 0.320837 3.4949 0.434034C3.81391 0.547232 4.16379 0.711882 4.54454 0.927986L22.8825 11.5634C23.572 11.9544 24.0762 12.3403 24.3952 12.7211C24.7142 13.0915 24.8737 13.5392 24.8737 14.064C24.8737 14.5991 24.7142 15.0519 24.3952 15.4224C24.0762 15.7928 23.572 16.1787 22.8825 16.5801L4.54454 27.2C4.16379 27.4264 3.81391 27.5962 3.4949 27.7094C3.17589 27.8226 2.84659 27.8792 2.50699 27.8792Z" fill="#2B4399"/>
</svg>
