<svg width="34" height="22" viewBox="0 0 34 22" fill="none" xmlns="http://www.w3.org/2000/svg">
<path d="M4.24609 17.6191C4.0638 17.834 3.83268 17.9447 3.55273 17.9512C3.27279 17.9512 3.01237 17.8242 2.77148 17.5703C1.96419 16.7109 1.34896 15.7116 0.925781 14.5723C0.509115 13.4264 0.300781 12.2188 0.300781 10.9492C0.300781 9.67969 0.515625 8.46875 0.945312 7.31641C1.375 6.16406 1.98372 5.16797 2.77148 4.32812C3.01237 4.06771 3.27279 3.94076 3.55273 3.94727C3.83268 3.95378 4.0638 4.06445 4.24609 4.2793C4.42188 4.48763 4.49023 4.71224 4.45117 4.95312C4.41211 5.19401 4.29492 5.42188 4.09961 5.63672C3.47461 6.32682 2.99284 7.1276 2.6543 8.03906C2.32227 8.95052 2.15625 9.92057 2.15625 10.9492C2.15625 11.9779 2.32227 12.9479 2.6543 13.8594C2.99284 14.7708 3.47461 15.5716 4.09961 16.2617C4.28841 16.4766 4.40234 16.7077 4.44141 16.9551C4.48698 17.196 4.42188 17.4173 4.24609 17.6191ZM7.17578 14.8066C7 15.028 6.76237 15.1387 6.46289 15.1387C6.16992 15.1387 5.91602 15.0085 5.70117 14.748C5.28451 14.2598 4.96549 13.6868 4.74414 13.0293C4.52279 12.3717 4.41211 11.6784 4.41211 10.9492C4.41211 10.2201 4.52279 9.52669 4.74414 8.86914C4.96549 8.21159 5.28451 7.63542 5.70117 7.14062C5.91602 6.88672 6.16992 6.75977 6.46289 6.75977C6.76237 6.75977 7 6.86719 7.17578 7.08203C7.34505 7.29036 7.4069 7.51172 7.36133 7.74609C7.32227 7.97396 7.22135 8.20182 7.05859 8.42969C6.80469 8.75521 6.60938 9.14258 6.47266 9.5918C6.33594 10.0345 6.26758 10.487 6.26758 10.9492C6.26758 11.4115 6.33594 11.8672 6.47266 12.3164C6.60938 12.7591 6.80469 13.14 7.05859 13.459C7.22786 13.6868 7.33203 13.918 7.37109 14.1523C7.41016 14.3867 7.34505 14.6048 7.17578 14.8066ZM29.7539 17.6191C29.5781 17.4173 29.5098 17.196 29.5488 16.9551C29.5879 16.7077 29.7051 16.4766 29.9004 16.2617C30.5189 15.5716 30.9941 14.7708 31.3262 13.8594C31.6647 12.9479 31.834 11.9779 31.834 10.9492C31.834 9.92057 31.668 8.95052 31.3359 8.03906C31.0039 7.1276 30.5254 6.32682 29.9004 5.63672C29.7051 5.42188 29.5879 5.19401 29.5488 4.95312C29.5098 4.71224 29.5781 4.48763 29.7539 4.2793C29.9297 4.06445 30.1608 3.95378 30.4473 3.94727C30.7337 3.94076 30.9941 4.06771 31.2285 4.32812C32.0098 5.16797 32.6152 6.16406 33.0449 7.31641C33.4746 8.46875 33.6895 9.67969 33.6895 10.9492C33.6895 12.2188 33.4779 13.4264 33.0547 14.5723C32.638 15.7116 32.0293 16.7109 31.2285 17.5703C30.9876 17.8242 30.724 17.9512 30.4375 17.9512C30.1576 17.9447 29.9297 17.834 29.7539 17.6191ZM26.8145 14.8066C26.6517 14.6048 26.5898 14.3867 26.6289 14.1523C26.668 13.918 26.7689 13.6868 26.9316 13.459C27.1855 13.14 27.3809 12.7591 27.5176 12.3164C27.6608 11.8672 27.7324 11.4115 27.7324 10.9492C27.7324 10.487 27.6608 10.0345 27.5176 9.5918C27.3809 9.14258 27.1855 8.75521 26.9316 8.42969C26.7689 8.20182 26.668 7.97396 26.6289 7.74609C26.5898 7.51172 26.6517 7.29036 26.8145 7.08203C26.9967 6.86719 27.2344 6.75977 27.5273 6.75977C27.8203 6.75977 28.0775 6.88672 28.2988 7.14062C28.7155 7.63542 29.0345 8.21159 29.2559 8.86914C29.4772 9.52669 29.5879 10.2201 29.5879 10.9492C29.5879 11.6784 29.4772 12.3717 29.2559 13.0293C29.0345 13.6868 28.7155 14.2598 28.2988 14.748C28.0775 15.0085 27.8203 15.1387 27.5273 15.1387C27.2344 15.1387 26.9967 15.028 26.8145 14.8066ZM10.1055 19.0742V2.80469C10.1055 1.96484 10.3757 1.28776 10.916 0.773438C11.4564 0.259115 12.1628 0.00195312 13.0352 0.00195312H21.043C21.9023 0.00195312 22.5924 0.259115 23.1133 0.773438C23.6341 1.28776 23.8945 1.96484 23.8945 2.80469V19.0742C23.8945 19.9141 23.6341 20.5911 23.1133 21.1055C22.5924 21.6263 21.9023 21.8867 21.043 21.8867H13.0352C12.1628 21.8867 11.4564 21.6296 10.916 21.1152C10.3757 20.6009 10.1055 19.9206 10.1055 19.0742ZM12.2832 17.9414H21.7168V3.94727H12.2832V17.9414ZM17.0098 20.7246C17.2702 20.7246 17.4915 20.6302 17.6738 20.4414C17.8626 20.2526 17.957 20.0247 17.957 19.7578C17.957 19.4974 17.8626 19.276 17.6738 19.0938C17.4915 18.9115 17.2702 18.8203 17.0098 18.8203C16.7493 18.8203 16.5247 18.9115 16.3359 19.0938C16.1536 19.276 16.0625 19.4974 16.0625 19.7578C16.0625 20.0247 16.1536 20.2526 16.3359 20.4414C16.5247 20.6302 16.7493 20.7246 17.0098 20.7246ZM14.9199 2.0332C14.9199 2.16992 14.9622 2.27734 15.0469 2.35547C15.1315 2.43359 15.2389 2.47266 15.3691 2.47266H18.6309C18.7611 2.47266 18.8685 2.43359 18.9531 2.35547C19.0378 2.27734 19.0801 2.16992 19.0801 2.0332C19.0801 1.90299 19.0378 1.79557 18.9531 1.71094C18.8685 1.6263 18.7611 1.58398 18.6309 1.58398H15.3691C15.2389 1.58398 15.1315 1.6263 15.0469 1.71094C14.9622 1.79557 14.9199 1.90299 14.9199 2.0332Z" fill="#2B4399"/>
</svg>
