<svg width="48" height="48" viewBox="0 0 48 48" fill="none" xmlns="http://www.w3.org/2000/svg">
<g clip-path="url(#clip0_529_7443)">
<ellipse cx="23.5" cy="24.5" rx="16.5" ry="13.5" fill="white"/>
<path d="M24 44.2033C21.2516 44.2033 18.6637 43.6767 16.2363 42.6235C13.8089 41.5832 11.6705 40.1384 9.82113 38.289C7.97171 36.4396 6.52043 34.3076 5.46729 31.8931C4.42699 29.4657 3.90684 26.8714 3.90684 24.1101C3.90684 21.3617 4.42699 18.7802 5.46729 16.3657C6.52043 13.9383 7.96529 11.7999 9.80186 9.95049C11.6513 8.10107 13.7897 6.65622 16.217 5.61592C18.6444 4.56278 21.2323 4.03621 23.9807 4.03621C26.7292 4.03621 29.3171 4.56278 31.7444 5.61592C34.1846 6.65622 36.323 8.10107 38.1596 9.95049C40.009 11.7999 41.4603 13.9383 42.5134 16.3657C43.5666 18.7802 44.0932 21.3617 44.0932 24.1101C44.0932 26.8714 43.5666 29.4657 42.5134 31.8931C41.4603 34.3076 40.009 36.4396 38.1596 38.289C36.323 40.1384 34.1911 41.5832 31.7637 42.6235C29.3363 43.6767 26.7484 44.2033 24 44.2033ZM11.9017 24.1101C11.9017 24.3284 11.9467 24.5532 12.0366 24.7844C12.1265 25.0027 12.2742 25.2082 12.4797 25.4008L20.9369 33.2994C21.2195 33.5691 21.4892 33.7682 21.746 33.8966C22.0029 34.0122 22.279 34.07 22.5744 34.07C23.0111 34.07 23.3771 33.9287 23.6725 33.6462C23.9807 33.3636 24.1349 32.9912 24.1349 32.5288V28.6759H32.3994C33.2599 28.6759 33.9214 28.4447 34.3837 27.9823C34.8589 27.52 35.0965 26.8714 35.0965 26.0366V22.2414C35.0965 21.3938 34.8589 20.7388 34.3837 20.2764C33.9214 19.8012 33.2599 19.5636 32.3994 19.5636H24.1349V15.7299C24.1349 15.3061 23.9807 14.9401 23.6725 14.6318C23.3771 14.3108 23.0047 14.1502 22.5551 14.1502C22.2597 14.1502 21.99 14.2144 21.746 14.3429C21.5148 14.4713 21.2451 14.6896 20.9369 14.9979L12.4797 22.8194C12.2742 23.0249 12.1265 23.2368 12.0366 23.4551C11.9467 23.6734 11.9017 23.8918 11.9017 24.1101Z" fill="#99A7DB"/>
</g>
<defs>
<clipPath id="clip0_529_7443">
<rect width="48" height="48" fill="white"/>
</clipPath>
</defs>
</svg>
