<svg width="14" height="21" viewBox="0 0 14 21" fill="none" xmlns="http://www.w3.org/2000/svg">
<path d="M13.2803 5.1123C13.2803 5.32064 13.2184 5.49967 13.0947 5.64941C12.971 5.79264 12.8083 5.88704 12.6064 5.93262L8.09473 6.91895C7.8929 6.96452 7.76921 7.0166 7.72363 7.0752C7.68457 7.13379 7.66504 7.26725 7.66504 7.47559V16.4404C7.66504 17.124 7.55111 17.7197 7.32324 18.2275C7.09538 18.7419 6.79264 19.165 6.41504 19.4971C6.04395 19.8291 5.63379 20.0765 5.18457 20.2393C4.74186 20.402 4.30566 20.4834 3.87598 20.4834C2.99707 20.4834 2.27767 20.2295 1.71777 19.7217C1.16439 19.2139 0.887695 18.5563 0.887695 17.749C0.887695 16.9482 1.13835 16.2874 1.63965 15.7666C2.14746 15.2393 2.91243 14.8682 3.93457 14.6533L5.50684 14.3311C5.87142 14.2529 6.03418 14.012 5.99512 13.6084L5.98535 2.81738C5.98535 2.18587 6.35645 1.78874 7.09863 1.62598L12.1377 0.532227C12.4437 0.467122 12.7106 0.525716 12.9385 0.708008C13.1663 0.890299 13.2803 1.14095 13.2803 1.45996V5.1123Z" fill="#2B4399"/>
</svg>
