<svg width="48" height="49" viewBox="0 0 48 49" fill="none" xmlns="http://www.w3.org/2000/svg">
<g clip-path="url(#clip0_631_4512)">
<ellipse cx="23.5" cy="25" rx="16.5" ry="13.5" fill="white"/>
<path d="M24.5 34.5156C22.2708 34.5156 20.1719 34.0885 18.2031 33.2344C16.2344 32.3906 14.5 31.2188 13 29.7188C11.5 28.2188 10.3229 26.4896 9.46875 24.5312C8.625 22.5625 8.20312 20.4583 8.20312 18.2188C8.20312 15.9896 8.625 13.8958 9.46875 11.9375C10.3229 9.96875 11.4948 8.23438 12.9844 6.73438C14.4844 5.23438 16.2188 4.0625 18.1875 3.21875C20.1562 2.36458 22.2552 1.9375 24.4844 1.9375C26.7135 1.9375 28.8125 2.36458 30.7812 3.21875C32.7604 4.0625 34.4948 5.23438 35.9844 6.73438C37.4844 8.23438 38.6615 9.96875 39.5156 11.9375C40.3698 13.8958 40.7969 15.9896 40.7969 18.2188C40.7969 20.4583 40.3698 22.5625 39.5156 24.5312C38.6615 26.4896 37.4844 28.2188 35.9844 29.7188C34.4948 31.2188 32.7656 32.3906 30.7969 33.2344C28.8281 34.0885 26.7292 34.5156 24.5 34.5156ZM19.8281 25.7031C20.1823 25.7031 20.4688 25.6302 20.6875 25.4844C20.9167 25.3281 21.1667 25.0521 21.4375 24.6562L24.4219 20.3281H24.5156L27.4375 24.6562C27.6979 25.0417 27.9427 25.3125 28.1719 25.4688C28.4115 25.625 28.7031 25.7031 29.0469 25.7031C29.5365 25.7031 29.9323 25.5625 30.2344 25.2812C30.5365 25 30.6875 24.6302 30.6875 24.1719C30.6875 23.776 30.5365 23.3854 30.2344 23L26.625 18.125L30.25 13.2188C30.5625 12.8333 30.7188 12.4375 30.7188 12.0312C30.7188 11.6042 30.5677 11.25 30.2656 10.9688C29.9635 10.6875 29.5781 10.5469 29.1094 10.5469C28.7656 10.5469 28.474 10.625 28.2344 10.7812C27.9948 10.9271 27.7604 11.1979 27.5312 11.5938L24.6719 15.9062H24.5625L21.6406 11.5781C21.3802 11.1927 21.1302 10.9271 20.8906 10.7812C20.651 10.625 20.3542 10.5469 20 10.5469C19.5417 10.5469 19.1562 10.6927 18.8438 10.9844C18.5312 11.276 18.375 11.6406 18.375 12.0781C18.375 12.4844 18.5365 12.901 18.8594 13.3281L22.3438 18.0625L18.6875 23.0469C18.3958 23.4323 18.25 23.8229 18.25 24.2188C18.25 24.6458 18.3958 25 18.6875 25.2812C18.9896 25.5625 19.3698 25.7031 19.8281 25.7031Z" fill="#778AD0"/>
</g>
<defs>
<clipPath id="clip0_631_4512">
<rect width="48" height="48" fill="white" transform="translate(0 0.5)"/>
</clipPath>
</defs>
</svg>
