<svg width="22" height="27" viewBox="0 0 22 27" fill="none" xmlns="http://www.w3.org/2000/svg">
<path d="M3.12746 26.0611C2.35566 26.0611 1.77424 25.8656 1.38319 25.4745C0.992146 25.0835 0.801768 24.5021 0.812059 23.7303V2.36687C0.812059 1.60536 1.00758 1.02909 1.39863 0.638042C1.78967 0.246997 2.36595 0.051474 3.12746 0.051474H6.83209C7.5936 0.0617647 8.16988 0.257287 8.56093 0.638042C8.95197 1.0188 9.14749 1.59507 9.14749 2.36687V23.7303C9.14749 24.5021 8.95197 25.0835 8.56093 25.4745C8.16988 25.8656 7.5936 26.0611 6.83209 26.0611H3.12746ZM15.1675 26.0611C14.3854 26.0611 13.7989 25.8656 13.4078 25.4745C13.0271 25.0835 12.8367 24.5021 12.8367 23.7303V2.36687C12.8367 1.60536 13.0322 1.02909 13.4233 0.638042C13.8143 0.246997 14.3957 0.051474 15.1675 0.051474H18.8567C19.6285 0.051474 20.2048 0.246997 20.5856 0.638042C20.9766 1.0188 21.1721 1.59507 21.1721 2.36687V23.7303C21.1721 24.5021 20.9766 25.0835 20.5856 25.4745C20.2048 25.8656 19.6285 26.0611 18.8567 26.0611H15.1675Z" fill="#2B4399"/>
</svg>
