<svg width="34" height="33" viewBox="0 0 34 33" fill="none" xmlns="http://www.w3.org/2000/svg">
<path d="M16.9062 32.8063C14.6771 32.8063 12.5781 32.3792 10.6094 31.525C8.64062 30.6813 6.90625 29.5094 5.40625 28.0094C3.90625 26.5094 2.72917 24.7802 1.875 22.8219C1.03125 20.8531 0.609375 18.749 0.609375 16.5094C0.609375 14.2802 1.03125 12.1865 1.875 10.2281C2.72917 8.2594 3.90104 6.52502 5.39062 5.02502C6.89062 3.52502 8.625 2.35315 10.5938 1.5094C12.5625 0.655233 14.6615 0.228149 16.8906 0.228149C19.1198 0.228149 21.2188 0.655233 23.1875 1.5094C25.1667 2.35315 26.901 3.52502 28.3906 5.02502C29.8906 6.52502 31.0677 8.2594 31.9219 10.2281C32.776 12.1865 33.2031 14.2802 33.2031 16.5094C33.2031 18.749 32.776 20.8531 31.9219 22.8219C31.0677 24.7802 29.8906 26.5094 28.3906 28.0094C26.901 29.5094 25.1719 30.6813 23.2031 31.525C21.2344 32.3792 19.1354 32.8063 16.9062 32.8063ZM12.2344 23.9938C12.5885 23.9938 12.875 23.9209 13.0938 23.775C13.3229 23.6188 13.5729 23.3427 13.8438 22.9469L16.8281 18.6188H16.9219L19.8438 22.9469C20.1042 23.3323 20.349 23.6031 20.5781 23.7594C20.8177 23.9156 21.1094 23.9938 21.4531 23.9938C21.9427 23.9938 22.3385 23.8531 22.6406 23.5719C22.9427 23.2906 23.0938 22.9209 23.0938 22.4625C23.0938 22.0667 22.9427 21.6761 22.6406 21.2906L19.0312 16.4156L22.6562 11.5094C22.9688 11.124 23.125 10.7281 23.125 10.3219C23.125 9.89482 22.974 9.54065 22.6719 9.2594C22.3698 8.97815 21.9844 8.83752 21.5156 8.83752C21.1719 8.83752 20.8802 8.91565 20.6406 9.0719C20.401 9.21773 20.1667 9.48857 19.9375 9.8844L17.0781 14.1969H16.9688L14.0469 9.86877C13.7865 9.48336 13.5365 9.21773 13.2969 9.0719C13.0573 8.91565 12.7604 8.83752 12.4062 8.83752C11.9479 8.83752 11.5625 8.98336 11.25 9.27502C10.9375 9.56669 10.7812 9.93127 10.7812 10.3688C10.7812 10.775 10.9427 11.1917 11.2656 11.6188L14.75 16.3531L11.0938 21.3375C10.8021 21.7229 10.6562 22.1136 10.6562 22.5094C10.6562 22.9365 10.8021 23.2906 11.0938 23.5719C11.3958 23.8531 11.776 23.9938 12.2344 23.9938Z" fill="#778AD0"/>
</svg>
